<mxfile host="app.diagrams.net" modified="2023-08-25T19:17:13.604Z" agent="Mozilla/5.0 (X11; Linux x86_64; rv:109.0) Gecko/20100101 Firefox/116.0" etag="3jD4voNIQIQ7TBUbU9Xl" version="21.6.9" type="google">
  <diagram name="Page-1" id="b5b7bab2-c9e2-2cf4-8b2a-24fd1a2a6d21">
    <mxGraphModel grid="1" page="1" gridSize="10" guides="1" tooltips="1" connect="1" arrows="1" fold="1" pageScale="1" pageWidth="827" pageHeight="1169" background="none" math="0" shadow="0">
      <root>
        <mxCell id="0" />
        <mxCell id="1" parent="0" />
        <mxCell id="IF1XcLESq2sKnnEIbDrS-1" value="cardápio" style="rounded=0;whiteSpace=wrap;html=1;" vertex="1" parent="1">
          <mxGeometry x="140" y="100" width="120" height="60" as="geometry" />
        </mxCell>
        <mxCell id="IF1XcLESq2sKnnEIbDrS-10" style="edgeStyle=orthogonalEdgeStyle;rounded=0;orthogonalLoop=1;jettySize=auto;html=1;entryX=0;entryY=0.5;entryDx=0;entryDy=0;endArrow=none;endFill=0;" edge="1" parent="1" source="IF1XcLESq2sKnnEIbDrS-2" target="IF1XcLESq2sKnnEIbDrS-9">
          <mxGeometry relative="1" as="geometry" />
        </mxCell>
        <mxCell id="GNJ5AtCcKbyYNWjTekby-23" style="edgeStyle=orthogonalEdgeStyle;rounded=0;orthogonalLoop=1;jettySize=auto;html=1;entryX=0;entryY=0.5;entryDx=0;entryDy=0;exitX=0.5;exitY=1;exitDx=0;exitDy=0;startArrow=none;startFill=0;shape=link;" edge="1" parent="1" source="IF1XcLESq2sKnnEIbDrS-2" target="IF1XcLESq2sKnnEIbDrS-2">
          <mxGeometry relative="1" as="geometry">
            <mxPoint x="160" y="660" as="targetPoint" />
            <Array as="points">
              <mxPoint x="195" y="620" />
              <mxPoint x="100" y="620" />
              <mxPoint x="100" y="570" />
            </Array>
          </mxGeometry>
        </mxCell>
        <mxCell id="IF1XcLESq2sKnnEIbDrS-2" value="ingrediente" style="rounded=0;whiteSpace=wrap;html=1;" vertex="1" parent="1">
          <mxGeometry x="140" y="540" width="110" height="60" as="geometry" />
        </mxCell>
        <mxCell id="IF1XcLESq2sKnnEIbDrS-3" value="refeição" style="rounded=0;whiteSpace=wrap;html=1;" vertex="1" parent="1">
          <mxGeometry x="140" y="340" width="120" height="60" as="geometry" />
        </mxCell>
        <mxCell id="IF1XcLESq2sKnnEIbDrS-4" value="aluno" style="rounded=0;whiteSpace=wrap;html=1;" vertex="1" parent="1">
          <mxGeometry x="460" y="100" width="120" height="60" as="geometry" />
        </mxCell>
        <mxCell id="IF1XcLESq2sKnnEIbDrS-5" value="consumo" style="rounded=0;whiteSpace=wrap;html=1;" vertex="1" parent="1">
          <mxGeometry x="460" y="340" width="120" height="60" as="geometry" />
        </mxCell>
        <mxCell id="IF1XcLESq2sKnnEIbDrS-6" value="tabela nutricional" style="rounded=0;whiteSpace=wrap;html=1;" vertex="1" parent="1">
          <mxGeometry x="460" y="540" width="120" height="60" as="geometry" />
        </mxCell>
        <mxCell id="IF1XcLESq2sKnnEIbDrS-7" value="contém" style="rhombus;whiteSpace=wrap;html=1;" vertex="1" parent="1">
          <mxGeometry x="170" y="220" width="60" height="60" as="geometry" />
        </mxCell>
        <mxCell id="IF1XcLESq2sKnnEIbDrS-8" value="possui" style="rhombus;whiteSpace=wrap;html=1;" vertex="1" parent="1">
          <mxGeometry x="170" y="443" width="60" height="60" as="geometry" />
        </mxCell>
        <mxCell id="IF1XcLESq2sKnnEIbDrS-11" style="edgeStyle=orthogonalEdgeStyle;rounded=0;orthogonalLoop=1;jettySize=auto;html=1;entryX=0;entryY=0.5;entryDx=0;entryDy=0;endArrow=none;endFill=0;" edge="1" parent="1" source="IF1XcLESq2sKnnEIbDrS-9" target="IF1XcLESq2sKnnEIbDrS-6">
          <mxGeometry relative="1" as="geometry" />
        </mxCell>
        <mxCell id="IF1XcLESq2sKnnEIbDrS-9" value="possui" style="rhombus;whiteSpace=wrap;html=1;" vertex="1" parent="1">
          <mxGeometry x="330" y="540" width="60" height="60" as="geometry" />
        </mxCell>
        <mxCell id="rA9ZLzkayFkzQZJqf9-A-4" value="" style="endArrow=none;html=1;rounded=0;entryX=0.5;entryY=1;entryDx=0;entryDy=0;exitX=0.5;exitY=0;exitDx=0;exitDy=0;" edge="1" parent="1" source="IF1XcLESq2sKnnEIbDrS-7" target="IF1XcLESq2sKnnEIbDrS-1">
          <mxGeometry width="50" height="50" relative="1" as="geometry">
            <mxPoint x="460" y="270" as="sourcePoint" />
            <mxPoint x="510" y="220" as="targetPoint" />
          </mxGeometry>
        </mxCell>
        <mxCell id="rA9ZLzkayFkzQZJqf9-A-5" value="" style="endArrow=none;html=1;rounded=0;entryX=0.5;entryY=1;entryDx=0;entryDy=0;exitX=0.5;exitY=0;exitDx=0;exitDy=0;" edge="1" parent="1" source="IF1XcLESq2sKnnEIbDrS-3" target="IF1XcLESq2sKnnEIbDrS-7">
          <mxGeometry width="50" height="50" relative="1" as="geometry">
            <mxPoint x="210" y="230" as="sourcePoint" />
            <mxPoint x="210" y="170" as="targetPoint" />
          </mxGeometry>
        </mxCell>
        <mxCell id="rA9ZLzkayFkzQZJqf9-A-6" value="" style="endArrow=none;html=1;rounded=0;entryX=0.5;entryY=1;entryDx=0;entryDy=0;exitX=0.5;exitY=0;exitDx=0;exitDy=0;" edge="1" parent="1" source="IF1XcLESq2sKnnEIbDrS-8" target="IF1XcLESq2sKnnEIbDrS-3">
          <mxGeometry width="50" height="50" relative="1" as="geometry">
            <mxPoint x="210" y="350" as="sourcePoint" />
            <mxPoint x="210" y="290" as="targetPoint" />
          </mxGeometry>
        </mxCell>
        <mxCell id="rA9ZLzkayFkzQZJqf9-A-7" value="" style="endArrow=none;html=1;rounded=0;entryX=0.5;entryY=1;entryDx=0;entryDy=0;exitX=0.545;exitY=0;exitDx=0;exitDy=0;exitPerimeter=0;" edge="1" parent="1" source="IF1XcLESq2sKnnEIbDrS-2" target="IF1XcLESq2sKnnEIbDrS-8">
          <mxGeometry width="50" height="50" relative="1" as="geometry">
            <mxPoint x="210" y="450" as="sourcePoint" />
            <mxPoint x="210" y="410" as="targetPoint" />
          </mxGeometry>
        </mxCell>
        <mxCell id="rA9ZLzkayFkzQZJqf9-A-10" value="consome" style="rhombus;whiteSpace=wrap;html=1;" vertex="1" parent="1">
          <mxGeometry x="490" y="220" width="60" height="60" as="geometry" />
        </mxCell>
        <mxCell id="rA9ZLzkayFkzQZJqf9-A-11" value="" style="endArrow=none;html=1;rounded=0;entryX=0.5;entryY=1;entryDx=0;entryDy=0;exitX=0.5;exitY=0;exitDx=0;exitDy=0;" edge="1" parent="1" source="rA9ZLzkayFkzQZJqf9-A-10" target="IF1XcLESq2sKnnEIbDrS-4">
          <mxGeometry width="50" height="50" relative="1" as="geometry">
            <mxPoint x="460" y="290" as="sourcePoint" />
            <mxPoint x="510" y="240" as="targetPoint" />
          </mxGeometry>
        </mxCell>
        <mxCell id="rA9ZLzkayFkzQZJqf9-A-12" value="" style="endArrow=none;html=1;rounded=0;entryX=0.5;entryY=1;entryDx=0;entryDy=0;exitX=0.5;exitY=0;exitDx=0;exitDy=0;" edge="1" parent="1" source="IF1XcLESq2sKnnEIbDrS-5" target="rA9ZLzkayFkzQZJqf9-A-10">
          <mxGeometry width="50" height="50" relative="1" as="geometry">
            <mxPoint x="460" y="290" as="sourcePoint" />
            <mxPoint x="510" y="240" as="targetPoint" />
          </mxGeometry>
        </mxCell>
        <mxCell id="GNJ5AtCcKbyYNWjTekby-2" value="contém" style="rhombus;whiteSpace=wrap;html=1;" vertex="1" parent="1">
          <mxGeometry x="330" y="340" width="60" height="60" as="geometry" />
        </mxCell>
        <mxCell id="GNJ5AtCcKbyYNWjTekby-3" value="" style="endArrow=none;html=1;rounded=0;exitX=1;exitY=0.5;exitDx=0;exitDy=0;entryX=0;entryY=0.5;entryDx=0;entryDy=0;" edge="1" parent="1" source="GNJ5AtCcKbyYNWjTekby-2" target="IF1XcLESq2sKnnEIbDrS-5">
          <mxGeometry width="50" height="50" relative="1" as="geometry">
            <mxPoint x="620" y="400" as="sourcePoint" />
            <mxPoint x="450" y="370" as="targetPoint" />
          </mxGeometry>
        </mxCell>
        <mxCell id="GNJ5AtCcKbyYNWjTekby-4" value="" style="endArrow=none;html=1;rounded=0;entryX=0;entryY=0.5;entryDx=0;entryDy=0;exitX=1;exitY=0.5;exitDx=0;exitDy=0;" edge="1" parent="1" source="IF1XcLESq2sKnnEIbDrS-3" target="GNJ5AtCcKbyYNWjTekby-2">
          <mxGeometry width="50" height="50" relative="1" as="geometry">
            <mxPoint x="290" y="380" as="sourcePoint" />
            <mxPoint x="370" y="300" as="targetPoint" />
          </mxGeometry>
        </mxCell>
        <mxCell id="GNJ5AtCcKbyYNWjTekby-7" value="n" style="text;html=1;align=center;verticalAlign=middle;resizable=0;points=[];autosize=1;strokeColor=none;fillColor=none;" vertex="1" parent="1">
          <mxGeometry x="190" y="180" width="30" height="30" as="geometry" />
        </mxCell>
        <mxCell id="GNJ5AtCcKbyYNWjTekby-8" value="n" style="text;html=1;align=center;verticalAlign=middle;resizable=0;points=[];autosize=1;strokeColor=none;fillColor=none;" vertex="1" parent="1">
          <mxGeometry x="190" y="290" width="30" height="30" as="geometry" />
        </mxCell>
        <mxCell id="GNJ5AtCcKbyYNWjTekby-9" value="n" style="text;html=1;align=center;verticalAlign=middle;resizable=0;points=[];autosize=1;strokeColor=none;fillColor=none;" vertex="1" parent="1">
          <mxGeometry x="190" y="410" width="30" height="30" as="geometry" />
        </mxCell>
        <mxCell id="GNJ5AtCcKbyYNWjTekby-10" value="n" style="text;html=1;align=center;verticalAlign=middle;resizable=0;points=[];autosize=1;strokeColor=none;fillColor=none;" vertex="1" parent="1">
          <mxGeometry x="190" y="503" width="30" height="30" as="geometry" />
        </mxCell>
        <mxCell id="GNJ5AtCcKbyYNWjTekby-11" value="1" style="text;html=1;align=center;verticalAlign=middle;resizable=0;points=[];autosize=1;strokeColor=none;fillColor=none;" vertex="1" parent="1">
          <mxGeometry x="280" y="550" width="30" height="30" as="geometry" />
        </mxCell>
        <mxCell id="GNJ5AtCcKbyYNWjTekby-12" value="1" style="text;html=1;align=center;verticalAlign=middle;resizable=0;points=[];autosize=1;strokeColor=none;fillColor=none;" vertex="1" parent="1">
          <mxGeometry x="410" y="550" width="30" height="30" as="geometry" />
        </mxCell>
        <mxCell id="GNJ5AtCcKbyYNWjTekby-13" value="n" style="text;html=1;align=center;verticalAlign=middle;resizable=0;points=[];autosize=1;strokeColor=none;fillColor=none;rotation=0;" vertex="1" parent="1">
          <mxGeometry x="280" y="350" width="30" height="30" as="geometry" />
        </mxCell>
        <mxCell id="GNJ5AtCcKbyYNWjTekby-14" value="n" style="text;html=1;align=center;verticalAlign=middle;resizable=0;points=[];autosize=1;strokeColor=none;fillColor=none;rotation=0;" vertex="1" parent="1">
          <mxGeometry x="410" y="350" width="30" height="30" as="geometry" />
        </mxCell>
        <mxCell id="GNJ5AtCcKbyYNWjTekby-15" value="1" style="text;html=1;align=center;verticalAlign=middle;resizable=0;points=[];autosize=1;strokeColor=none;fillColor=none;" vertex="1" parent="1">
          <mxGeometry x="510" y="180" width="30" height="30" as="geometry" />
        </mxCell>
        <mxCell id="GNJ5AtCcKbyYNWjTekby-16" value="1" style="text;html=1;align=center;verticalAlign=middle;resizable=0;points=[];autosize=1;strokeColor=none;fillColor=none;" vertex="1" parent="1">
          <mxGeometry x="510" y="290" width="30" height="30" as="geometry" />
        </mxCell>
      </root>
    </mxGraphModel>
  </diagram>
</mxfile>
